# xmcd
#
# Track frame offsets:
#	150
#	22981
#	41622
#	54952
#	79482
#	108760
#	124924
#	151156
#	170274
#	188751
#	200526
#	218723
#	248024
#
# Disc length: 3575 seconds
# Revision: 1
# Processed by: cddbd v1.5.2PL0 Copyright (c) Steve Scherf et al.
# Submitted via: dBpowerAMP V12.0
#
DISCID=a10df50d
DTITLE=Little Charlie And Organ Grinder Swing - Skronky Tonk
DYEAR=2016
DGENRE=Blues
TTITLE0=Skronky Tonk
TTITLE1=How High Is The Moon
TTITLE2=Receita de Samba
TTITLE3=Nuages
TTITLE4=Pennies From Heaven
TTITLE5=Gerontology
TTITLE6=Django
TTITLE7=Swing To Bop
TTITLE8=Broadway
TTITLE9=Um a Zero
TTITLE10=Cobalt Blues
TTITLE11=Misty
TTITLE12=Flyin' Home
EXTD=
EXTT0=
EXTT1=
EXTT2=
EXTT3=
EXTT4=
EXTT5=
EXTT6=
EXTT7=
EXTT8=
EXTT9=
EXTT10=
EXTT11=
EXTT12=
PLAYORDER=
